<?xml version="1.0" encoding="utf-8"?>
<svg viewBox="0 0 312.602 312.602" xmlns="http://www.w3.org/2000/svg">
  <path style="fill: rgb(58, 0, 115); stroke: rgb(58, 0, 115); paint-order: stroke; stroke-width: 6px;" d="M 245.929 131.521 C 242.228 131.521 238.564 131.882 234.973 132.598 C 233.333 87.713 196.925 51.713 152.408 51.713 C 111.469 51.713 76.83 82.525 70.752 123.032 C 37.745 123.851 11.14 151.422 11.14 185.192 C 11.14 219.478 38.56 247.371 72.265 247.371 L 123.402 247.371 C 127.269 247.371 130.404 244.181 130.404 240.248 C 130.404 236.315 127.269 233.127 123.402 233.127 L 72.265 233.127 C 46.281 233.127 25.142 211.624 25.142 185.192 C 25.142 158.76 46.281 137.256 72.265 137.256 C 73.54 137.256 74.891 137.32 76.39 137.453 L 83.485 138.077 L 83.978 130.852 C 86.462 94.462 116.52 65.956 152.408 65.956 C 190.244 65.956 221.027 97.269 221.027 135.759 C 221.027 137.528 220.945 139.42 220.774 141.54 L 219.857 152.906 L 230.297 148.759 C 235.297 146.772 240.557 145.766 245.931 145.766 C 269.65 145.766 288.947 165.396 288.947 189.523 C 288.947 213.65 269.65 233.281 245.931 233.281 C 245.308 233.281 226.694 233.243 208.155 233.204 C 189.754 233.166 171.426 233.128 170.817 233.128 C 166.46 233.128 164.183 230.993 164.046 226.783 L 164.046 149.907 L 171.643 159.087 C 174.133 162.097 178.55 162.482 181.508 159.949 C 184.466 157.416 184.845 152.923 182.354 149.914 L 165.518 129.567 C 163.397 127.004 160.348 125.533 157.155 125.533 C 153.961 125.533 150.914 127.004 148.794 129.567 L 131.956 149.914 C 129.466 152.923 129.845 157.416 132.804 159.949 C 134.116 161.073 135.717 161.623 137.308 161.623 C 139.302 161.623 141.283 160.76 142.668 159.087 L 150.043 150.174 L 150.043 226.854 C 150.043 235.102 155.575 247.372 170.816 247.372 C 171.425 247.372 189.739 247.409 208.126 247.447 C 226.678 247.486 245.305 247.523 245.93 247.523 C 277.37 247.523 302.948 221.504 302.948 189.522 C 302.948 157.539 277.369 131.521 245.929 131.521 Z" transform="matrix(1, 0, 0, 1, 3.552713678800501e-15, -3.552713678800501e-15)"/>
</svg>